<svg xmlns="http://www.w3.org/2000/svg" width="200.49" height="200.89" viewBox="0 0 200.49 200.89"><title>Artboard 61 copy 3</title><circle cx="100.31" cy="100.75" r="100" style="fill:#fff"/><path d="M36.8,164.91a90.57,90.57,0,1,1,128.08,0A90.58,90.58,0,0,1,36.8,164.91Z" style="fill:#4b2778"/><path d="M60.23,143.16c-4.66,5.12-9.56,1.6-10.25.12-.81-1.77-3.21-1.85-5.51-.35s-3.08,4.66-.29,7.34c1.42,1.37,5.8,3.76,11.17,3.64,4.46-.1,8.13-4.19,8.13-4.19s3.66-4.33,1.58-6.38A3.57,3.57,0,0,0,60.23,143.16Zm73.12-17.78s-17.18,6.32-41.18-17.18S74.53,71.71,74.53,71.71s-6.23-3.15-10.13.69c-3.35,3.29-32.71,33.55-1.32,64.43,13.22,13,37.93,26.29,67.5,1.57C130.58,138.4,140.15,131.41,133.35,125.38Zm18.7-69.9A14.7,14.7,0,0,0,140.21,46c-6.05-1.06-26.54-3.48-39.93,4.29a80,80,0,0,0-21.41,18.3s-9.77,15.24,18.45,36c22.28,16.43,36.27,12.38,39.76,10.86,5.11-2.23,11.16-10.18,14.45-17.82S157.3,69.69,152.05,55.48Z" style="fill:#fff"/></svg>